<svg width="32" height="32" viewBox="0 0 32 32" fill="none" xmlns="http://www.w3.org/2000/svg">
  <rect width="32" height="32" rx="6" fill="#2563eb"/>
  <rect x="4" y="4" width="24" height="24" rx="2" fill="white"/>
  <rect x="6" y="6" width="20" height="20" rx="1" fill="#1e293b"/>
  <rect x="8" y="8" width="2" height="2" fill="white"/>
  <rect x="11" y="8" width="2" height="2" fill="white"/>
  <rect x="14" y="8" width="2" height="2" fill="white"/>
  <rect x="17" y="8" width="2" height="2" fill="white"/>
  <rect x="20" y="8" width="2" height="2" fill="white"/>
  <rect x="23" y="8" width="2" height="2" fill="white"/>
  <rect x="8" y="11" width="2" height="2" fill="white"/>
  <rect x="11" y="11" width="2" height="2" fill="white"/>
  <rect x="14" y="11" width="2" height="2" fill="white"/>
  <rect x="17" y="11" width="2" height="2" fill="white"/>
  <rect x="20" y="11" width="2" height="2" fill="white"/>
  <rect x="23" y="11" width="2" height="2" fill="white"/>
  <rect x="8" y="14" width="2" height="2" fill="white"/>
  <rect x="11" y="14" width="2" height="2" fill="white"/>
  <rect x="14" y="14" width="2" height="2" fill="white"/>
  <rect x="17" y="14" width="2" height="2" fill="white"/>
  <rect x="20" y="14" width="2" height="2" fill="white"/>
  <rect x="23" y="14" width="2" height="2" fill="white"/>
  <rect x="8" y="17" width="2" height="2" fill="white"/>
  <rect x="11" y="17" width="2" height="2" fill="white"/>
  <rect x="14" y="17" width="2" height="2" fill="white"/>
  <rect x="17" y="17" width="2" height="2" fill="white"/>
  <rect x="20" y="17" width="2" height="2" fill="white"/>
  <rect x="23" y="17" width="2" height="2" fill="white"/>
  <rect x="8" y="20" width="2" height="2" fill="white"/>
  <rect x="11" y="20" width="2" height="2" fill="white"/>
  <rect x="14" y="20" width="2" height="2" fill="white"/>
  <rect x="17" y="20" width="2" height="2" fill="white"/>
  <rect x="20" y="20" width="2" height="2" fill="white"/>
  <rect x="23" y="20" width="2" height="2" fill="white"/>
  <rect x="8" y="23" width="2" height="2" fill="white"/>
  <rect x="11" y="23" width="2" height="2" fill="white"/>
  <rect x="14" y="23" width="2" height="2" fill="white"/>
  <rect x="17" y="23" width="2" height="2" fill="white"/>
  <rect x="20" y="23" width="2" height="2" fill="white"/>
  <rect x="23" y="23" width="2" height="2" fill="white"/>
</svg>
